# xmcd CD database file
#
# Track frame offsets:
#	150
#	13005
#	24258
#	44433
#	60362
#	74652
#	91119
#	106668
#	122934
#	137069
#	154154
#	178132
#	191738
#	206715
#
# Disc length: 2910 seconds
#
# Revision: 0
# Processed by: cddbd v1.5.2PL0 Copyright (c) Steve Scherf et al.
# Submitted via: CDex 1.70beta2
#
DISCID=c10b5c0e
DTITLE=Bamboozy - Once Upon A Time In A Ribhouse
DYEAR=1900
DGENRE=Country
TTITLE0=Wayfaring Stranger
TTITLE1=I Don't Even Know Your Name
TTITLE2=Diamonds And Rust
TTITLE3=The L and N Don't Stop Here Anymore
TTITLE4=Oregon
TTITLE5=Landslide
TTITLE6=Ride On
TTITLE7=La Llorona
TTITLE8=Gardenia
TTITLE9=Johnny Jump Up
TTITLE10=Ocean Gipsy
TTITLE11=The Cowboy Song
TTITLE12=One More Cup Of Coffee
TTITLE13=Jesse
EXTD=
EXTT0=
EXTT1=
EXTT2=
EXTT3=
EXTT4=
EXTT5=
EXTT6=
EXTT7=
EXTT8=
EXTT9=
EXTT10=
EXTT11=
EXTT12=
EXTT13=
PLAYORDER=
